<svg xmlns="http://www.w3.org/2000/svg" width="256" height="256" viewBox="0 0 16 16" shape-rendering="crispEdges">
<path fill="#2de2e6" d="M1 2h1v1h-1zM5 2h1v1h-1zM1 3h2v1h-2zM4 3h2v1h-2zM0 4h7v1h-7zM0 5h1v1h-1zM2 5h2v1h-2zM5 5h2v1h-2zM0 6h8v1h-8zM5 7h3v1h-3zM5 8h4v1h-4zM4 9h6v1h-6zM4 10h7v1h-7zM4 11h7v1h-7zM4 12h8v1h-8zM4 13h9v1h-9zM5 14h4v1h-4zM10 14h4v1h-4z"/>
<path fill="#9af3f3" d="M10 0h4v1h-4zM9 1h6v1h-6zM8 2h8v1h-8zM8 3h2v1h-2zM13 3h3v1h-3zM8 4h5v1h-5zM14 4h2v1h-2zM9 5h4v1h-4zM14 5h2v1h-2zM10 6h2v1h-2zM13 6h3v1h-3zM11 7h1v1h-1zM13 7h3v1h-3zM11 8h5v1h-5zM11 9h4v1h-4zM11 10h4v1h-4zM11 11h3v1h-3zM12 12h1v1h-1z"/>
<path fill="#1a8f9c" d="M1 8h1v1h-1zM3 8h1v1h-1zM0 14h5v1h-5zM9 14h1v1h-1zM10 3h3v1h-3zM13 4h1v1h-1zM13 5h1v1h-1zM12 6h1v1h-1zM12 7h1v1h-1z"/>
<path fill="#c8fbf5" d="M0 7h2v1h-2zM3 7h2v1h-2zM0 8h1v1h-1zM2 8h1v1h-1zM4 8h1v1h-1zM1 9h3v1h-3z"/>
<path fill="#06131a" d="M1 5h1v1h-1zM4 5h1v1h-1z"/>
<path fill="#ff4f9a" d="M2 7h1v1h-1z"/>
<path fill="#fff1d0" d="M1 10h1v1h-1zM3 10h1v1h-1zM1 11h1v1h-1zM3 11h1v1h-1zM1 12h1v1h-1zM3 12h1v1h-1zM1 13h1v1h-1zM3 13h1v1h-1z"/>
</svg>
